<?xml version="1.0" standalone="no"?>
<!DOCTYPE svg PUBLIC "-//W3C//DTD SVG 20010904//EN"
 "http://www.w3.org/TR/2001/REC-SVG-20010904/DTD/svg10.dtd">
<svg version="1.0" xmlns="http://www.w3.org/2000/svg"
 width="529.000000pt" height="529.000000pt" viewBox="0 0 529.000000 529.000000"
 preserveAspectRatio="xMidYMid meet">
<metadata>
Created by potrace 1.11, written by Peter Selinger 2001-2013
</metadata>
<g transform="translate(0.000000,529.000000) scale(0.100000,-0.100000)"
fill="#000000" stroke="none">
<path d="M3480 5171 c-141 -46 -215 -179 -175 -316 22 -77 91 -147 166 -169
65 -20 83 -20 145 -1 105 31 176 128 177 240 0 136 -98 242 -232 251 -31 2
-67 0 -81 -5z m20 -156 l44 -45 47 46 c31 31 53 45 63 41 27 -11 18 -39 -26
-84 l-42 -43 42 -43 c44 -45 53 -73 26 -84 -10 -4 -30 9 -58 36 -23 22 -46 41
-51 41 -5 0 -28 -19 -51 -41 -28 -27 -48 -40 -58 -36 -27 11 -18 39 26 84 l42
43 -42 43 c-40 40 -51 65 -35 80 14 14 30 6 73 -38z"/>
<path d="M2564 5156 c-222 -36 -433 -140 -595 -294 -85 -79 -105 -112 -88
-145 30 -57 57 -50 152 41 130 124 249 197 402 245 228 72 495 58 701 -38 51
-23 76 -30 79 -22 22 73 24 102 9 114 -27 20 -176 71 -260 88 -106 22 -299 28
-400 11z"/>
<path d="M2618 4830 c-86 -14 -203 -56 -281 -102 -77 -45 -212 -170 -222 -205
-7 -25 32 -73 59 -73 8 0 43 28 78 62 74 73 158 129 237 159 265 99 551 33
750 -175 43 -44 82 -48 107 -11 21 33 12 56 -49 118 -97 99 -235 178 -368 211
-82 20 -235 28 -311 16z"/>
<path d="M2605 4506 c-121 -39 -265 -154 -265 -214 0 -32 26 -62 55 -62 10 0
46 27 81 60 89 86 135 104 259 105 87 0 107 -3 156 -26 31 -15 80 -51 111 -83
60 -60 71 -64 106 -40 37 26 29 67 -24 124 -97 104 -208 150 -352 149 -48 0
-105 -6 -127 -13z"/>
<path d="M2678 4251 c-41 -13 -95 -49 -102 -67 -16 -40 -4 -62 68 -132 44 -43
82 -72 95 -72 26 0 159 124 167 156 18 71 -132 146 -228 115z"/>
<path d="M1535 3754 c-76 -39 -121 -77 -166 -138 l-29 -39 0 -1763 c0 -1317 3
-1770 12 -1789 l11 -25 1448 0 c1422 0 1448 0 1459 19 7 13 10 587 10 1786 l0
1765 -24 38 c-35 54 -92 105 -161 144 l-60 33 -1215 3 -1215 2 -70 -36z m2492
-220 c66 -50 61 93 65 -1729 l3 -1650 -23 -33 c-50 -69 39 -64 -1257 -69
-1119 -4 -1171 -4 -1204 14 -19 10 -44 31 -55 46 -21 28 -21 30 -27 1665 -4
903 -3 1653 2 1672 10 42 54 87 95 100 16 4 556 8 1201 7 l1172 -2 28 -21z"/>
<path d="M3535 3271 c-80 -20 -125 -71 -125 -143 0 -46 4 -55 38 -87 21 -20
61 -44 89 -54 28 -10 59 -27 68 -37 24 -27 13 -68 -21 -76 -25 -7 -99 0 -141
12 -18 5 -23 1 -28 -22 -4 -16 -9 -36 -11 -46 -10 -34 150 -55 228 -29 71 24
117 105 97 173 -13 46 -54 84 -118 109 -86 34 -111 65 -79 97 14 14 96 16 132
3 22 -9 26 -7 35 21 20 57 15 65 -39 77 -56 12 -80 12 -125 2z"/>
<path d="M1909 3266 c-2 -2 -3 -113 -1 -245 l3 -241 49 0 50 0 0 168 c1 158 2
165 16 137 9 -16 50 -92 91 -167 l75 -138 59 0 59 0 -2 243 -3 242 -50 0 -50
0 3 -160 3 -160 -64 120 c-35 66 -76 139 -90 163 -27 42 -28 42 -85 42 -32 0
-61 -2 -63 -4z"/>
<path d="M2400 3025 l0 -245 155 0 155 0 0 45 0 44 -97 3 -98 3 0 55 0 55 88
3 87 3 0 44 0 45 -90 0 -90 0 0 45 0 44 93 3 92 3 3 48 3 47 -150 0 -151 0 0
-245z"/>
<path d="M2757 3243 c3 -16 29 -125 57 -243 l51 -215 63 -3 c34 -2 62 -2 62 0
0 15 70 321 74 325 3 4 6 -7 7 -23 0 -16 12 -90 27 -164 l27 -135 61 -3 61 -3
56 223 c31 123 60 233 63 246 6 22 5 23 -52 20 l-59 -3 -27 -135 c-14 -74 -27
-147 -27 -162 -1 -39 -21 -35 -22 5 0 17 -13 91 -27 162 l-27 130 -60 0 -59 0
-36 -178 -35 -179 -23 134 c-13 73 -28 154 -33 181 l-11 47 -59 0 -59 0 7 -27z"/>
<path d="M1872 2427 c-17 -18 -22 -36 -22 -78 0 -60 20 -94 63 -104 12 -3 217
-4 455 -3 l434 3 19 24 c27 34 27 133 -1 161 -19 19 -33 20 -473 20 l-454 0
-21 -23z"/>
<path d="M3080 2430 c-19 -19 -20 -33 -20 -503 l0 -484 23 -21 c23 -22 29 -22
334 -22 l312 0 20 26 c21 26 21 36 21 503 0 466 0 478 -20 499 -21 22 -25 22
-335 22 -302 0 -316 -1 -335 -20z"/>
<path d="M1875 1965 c-21 -20 -25 -34 -25 -80 0 -46 4 -60 25 -80 l24 -25 444
0 c434 0 445 0 471 21 23 18 26 27 26 83 0 52 -4 66 -23 84 -23 22 -25 22
-471 22 l-447 0 -24 -25z"/>
<path d="M1875 1535 c-21 -20 -25 -34 -25 -80 0 -46 4 -60 25 -80 l24 -25 449
0 449 0 21 23 c18 19 22 35 22 84 0 55 -3 64 -26 82 -26 21 -37 21 -471 21
l-444 0 -24 -25z"/>
<path d="M2823 1020 c-31 -13 -43 -41 -43 -104 0 -43 5 -61 20 -76 19 -19 33
-20 473 -20 l454 0 21 23 c17 18 22 36 22 74 0 117 18 113 -497 112 -235 0
-438 -4 -450 -9z"/>
<path d="M1875 985 l-25 -24 0 -281 0 -281 25 -24 24 -25 306 0 306 0 24 25
25 24 0 281 0 281 -25 24 -24 25 -306 0 -306 0 -24 -25z"/>
<path d="M2833 563 c-36 -7 -53 -41 -53 -105 0 -60 21 -98 55 -98 8 0 206 0
440 0 234 0 432 0 440 0 32 0 55 42 55 99 -1 62 -13 85 -54 101 -26 10 -833
13 -883 3z"/>
</g>
</svg>
